# Blender v2.79 (sub 0) OBJ File: 'broomstick.blend'
# www.blender.org
mtllib broomstick.mtl
o Cylinder.001
v 0.349985 2.381149 -0.356439
v 0.349985 2.712099 -0.356439
v 0.382268 2.381149 -0.353259
v 0.382268 2.712099 -0.353259
v 0.413310 2.381149 -0.343843
v 0.413310 2.712099 -0.343843
v 0.441919 2.381149 -0.328551
v 0.441919 2.712099 -0.328551
v 0.466994 2.381149 -0.307972
v 0.466994 2.712099 -0.307972
v 0.487573 2.381149 -0.282897
v 0.487573 2.712099 -0.282897
v 0.502865 2.381149 -0.254288
v 0.502865 2.712099 -0.254288
v 0.512281 2.381149 -0.223246
v 0.512281 2.712099 -0.223246
v 0.515461 2.381149 -0.190963
v 0.515461 2.712099 -0.190963
v 0.512281 2.381149 -0.158681
v 0.512281 2.712099 -0.158681
v 0.502865 2.381149 -0.127639
v 0.502865 2.712099 -0.127639
v 0.487573 2.381149 -0.099030
v 0.487573 2.712099 -0.099030
v 0.466994 2.381149 -0.073955
v 0.466994 2.712099 -0.073955
v 0.441919 2.381149 -0.053376
v 0.441919 2.712099 -0.053376
v 0.413310 2.381149 -0.038084
v 0.413310 2.712099 -0.038084
v 0.382268 2.381149 -0.028668
v 0.382268 2.712099 -0.028668
v 0.349985 2.381149 -0.025488
v 0.349985 2.712099 -0.025488
v 0.317703 2.381149 -0.028668
v 0.317703 2.712099 -0.028668
v 0.286661 2.381149 -0.038084
v 0.286661 2.712099 -0.038084
v 0.258052 2.381149 -0.053376
v 0.258052 2.712099 -0.053376
v 0.232976 2.381149 -0.073955
v 0.232976 2.712099 -0.073955
v 0.212397 2.381149 -0.099030
v 0.212397 2.712099 -0.099030
v 0.197106 2.381149 -0.127639
v 0.197106 2.712099 -0.127639
v 0.187689 2.381149 -0.158681
v 0.187689 2.712099 -0.158681
v 0.184510 2.381149 -0.190964
v 0.184510 2.712099 -0.190964
v 0.187689 2.381149 -0.223246
v 0.187689 2.712099 -0.223246
v 0.197106 2.381149 -0.254288
v 0.197106 2.712099 -0.254288
v 0.212398 2.381149 -0.282897
v 0.212398 2.712099 -0.282897
v 0.232977 2.381149 -0.307972
v 0.232977 2.712099 -0.307972
v 0.258052 2.381149 -0.328551
v 0.258052 2.712099 -0.328551
v 0.286661 2.381149 -0.343843
v 0.286661 2.712099 -0.343843
v 0.317703 2.381149 -0.353259
v 0.317703 2.712099 -0.353259
v 0.382268 2.712099 -0.353259
v 0.349985 2.712099 -0.356439
v 0.413310 2.712099 -0.343843
v 0.441919 2.712099 -0.328551
v 0.466994 2.712099 -0.307972
v 0.487573 2.712099 -0.282897
v 0.502865 2.712099 -0.254288
v 0.512281 2.712099 -0.223246
v 0.515461 2.712099 -0.190963
v 0.512281 2.712099 -0.158681
v 0.502865 2.712099 -0.127639
v 0.487573 2.712099 -0.099030
v 0.466994 2.712099 -0.073955
v 0.441919 2.712099 -0.053376
v 0.413310 2.712099 -0.038084
v 0.382268 2.712099 -0.028668
v 0.349985 2.712099 -0.025488
v 0.317703 2.712099 -0.028668
v 0.286661 2.712099 -0.038084
v 0.258052 2.712099 -0.053376
v 0.232976 2.712099 -0.073955
v 0.212397 2.712099 -0.099030
v 0.197106 2.712099 -0.127639
v 0.187689 2.712099 -0.158681
v 0.184510 2.712099 -0.190964
v 0.187689 2.712099 -0.223246
v 0.197106 2.712099 -0.254288
v 0.212398 2.712099 -0.282897
v 0.232977 2.712099 -0.307972
v 0.258052 2.712099 -0.328551
v 0.286661 2.712099 -0.343843
v 0.317703 2.712099 -0.353259
v 0.382268 9.556553 -0.353259
v 0.349985 9.556553 -0.356439
v 0.413310 9.556553 -0.343843
v 0.441918 9.556553 -0.328551
v 0.466994 9.556553 -0.307972
v 0.487573 9.556553 -0.282897
v 0.502864 9.556553 -0.254288
v 0.512281 9.556553 -0.223246
v 0.515460 9.556553 -0.190963
v 0.512281 9.556553 -0.158681
v 0.502864 9.556553 -0.127639
v 0.487573 9.556553 -0.099030
v 0.466994 9.556553 -0.073955
v 0.441918 9.556553 -0.053376
v 0.413310 9.556553 -0.038084
v 0.382268 9.556553 -0.028668
v 0.349985 9.556553 -0.025488
v 0.317702 9.556553 -0.028668
v 0.286660 9.556553 -0.038084
v 0.258052 9.556553 -0.053376
v 0.232976 9.556553 -0.073955
v 0.212397 9.556553 -0.099030
v 0.197105 9.556553 -0.127639
v 0.187689 9.556553 -0.158681
v 0.184509 9.556553 -0.190964
v 0.187689 9.556553 -0.223246
v 0.197106 9.556553 -0.254288
v 0.212397 9.556553 -0.282897
v 0.232976 9.556553 -0.307972
v 0.258052 9.556553 -0.328551
v 0.286660 9.556553 -0.343843
v 0.317703 9.556553 -0.353259
v 0.349985 1.241410 -0.356439
v 0.382268 1.241410 -0.353259
v 0.413310 1.241410 -0.343843
v 0.441919 1.241410 -0.328551
v 0.466994 1.241410 -0.307972
v 0.487573 1.241410 -0.282897
v 0.502865 1.241410 -0.254288
v 0.512281 1.241410 -0.223246
v 0.515461 1.241410 -0.190963
v 0.512281 1.241410 -0.158681
v 0.502865 1.241410 -0.127639
v 0.487573 1.241410 -0.099030
v 0.466994 1.241410 -0.073955
v 0.441919 1.241410 -0.053376
v 0.413310 1.241410 -0.038084
v 0.382268 1.241410 -0.028668
v 0.349985 1.241410 -0.025488
v 0.317703 1.241410 -0.028668
v 0.286661 1.241410 -0.038084
v 0.258052 1.241410 -0.053376
v 0.232977 1.241410 -0.073955
v 0.212398 1.241410 -0.099030
v 0.197106 1.241410 -0.127639
v 0.187689 1.241410 -0.158681
v 0.184510 1.241410 -0.190964
v 0.187690 1.241410 -0.223246
v 0.197106 1.241410 -0.254288
v 0.212398 1.241410 -0.282897
v 0.232977 1.241410 -0.307972
v 0.258052 1.241410 -0.328551
v 0.286661 1.241410 -0.343843
v 0.317703 1.241410 -0.353259
vn 0.0980 0.0000 -0.9952
vn 0.2903 0.0000 -0.9569
vn 0.4714 0.0000 -0.8819
vn 0.6344 0.0000 -0.7730
vn 0.7730 0.0000 -0.6344
vn 0.8819 0.0000 -0.4714
vn 0.9569 0.0000 -0.2903
vn 0.9952 0.0000 -0.0980
vn 0.9952 0.0000 0.0980
vn 0.9569 0.0000 0.2903
vn 0.8819 0.0000 0.4714
vn 0.7730 0.0000 0.6344
vn 0.6344 0.0000 0.7730
vn 0.4714 0.0000 0.8819
vn 0.2903 0.0000 0.9569
vn 0.0980 0.0000 0.9952
vn -0.0980 0.0000 0.9952
vn -0.2903 0.0000 0.9569
vn -0.4714 0.0000 0.8819
vn -0.6344 0.0000 0.7730
vn -0.7730 0.0000 0.6344
vn -0.8819 0.0000 0.4714
vn -0.9569 0.0000 0.2903
vn -0.9952 0.0000 0.0980
vn -0.9952 0.0000 -0.0980
vn -0.9569 0.0000 -0.2903
vn -0.8819 0.0000 -0.4714
vn -0.7730 0.0000 -0.6344
vn -0.6344 0.0000 -0.7730
vn -0.4714 0.0000 -0.8819
vn 0.0000 0.0000 1.0000
vn -0.2903 0.0000 -0.9569
vn -0.0980 0.0000 -0.9952
vn 0.0000 1.0000 -0.0000
vn 0.0000 -1.0000 -0.0000
usemtl None
s off
f 1//1 2//1 4//1 3//1
f 3//2 4//2 6//2 5//2
f 5//3 6//3 8//3 7//3
f 7//4 8//4 10//4 9//4
f 9//5 10//5 12//5 11//5
f 11//6 12//6 14//6 13//6
f 13//7 14//7 16//7 15//7
f 15//8 16//8 18//8 17//8
f 17//9 18//9 20//9 19//9
f 19//10 20//10 22//10 21//10
f 21//11 22//11 24//11 23//11
f 23//12 24//12 26//12 25//12
f 25//13 26//13 28//13 27//13
f 27//14 28//14 30//14 29//14
f 29//15 30//15 32//15 31//15
f 31//16 32//16 34//16 33//16
f 33//17 34//17 36//17 35//17
f 35//18 36//18 38//18 37//18
f 37//19 38//19 40//19 39//19
f 39//20 40//20 42//20 41//20
f 41//21 42//21 44//21 43//21
f 43//22 44//22 46//22 45//22
f 45//23 46//23 48//23 47//23
f 47//24 48//24 50//24 49//24
f 49//25 50//25 52//25 51//25
f 51//26 52//26 54//26 53//26
f 53//27 54//27 56//27 55//27
f 55//28 56//28 58//28 57//28
f 57//29 58//29 60//29 59//29
f 59//30 60//30 62//30 61//30
f 32//31 30//31 79//31 80//31
f 61//32 62//32 64//32 63//32
f 63//33 64//33 2//33 1//33
f 3//2 5//2 131//2 130//2
f 81//16 80//16 112//16 113//16
f 50//31 48//31 88//31 89//31
f 6//31 4//31 65//31 67//31
f 24//31 22//31 75//31 76//31
f 42//31 40//31 84//31 85//31
f 60//31 58//31 93//31 94//31
f 16//31 14//31 71//31 72//31
f 34//31 32//31 80//31 81//31
f 52//31 50//31 89//31 90//31
f 8//31 6//31 67//31 68//31
f 26//31 24//31 76//31 77//31
f 44//31 42//31 85//31 86//31
f 62//31 60//31 94//31 95//31
f 18//31 16//31 72//31 73//31
f 36//31 34//31 81//31 82//31
f 54//31 52//31 90//31 91//31
f 10//31 8//31 68//31 69//31
f 28//31 26//31 77//31 78//31
f 46//31 44//31 86//31 87//31
f 64//31 62//31 95//31 96//31
f 20//31 18//31 73//31 74//31
f 38//31 36//31 82//31 83//31
f 56//31 54//31 91//31 92//31
f 12//31 10//31 69//31 70//31
f 30//31 28//31 78//31 79//31
f 48//31 46//31 87//31 88//31
f 4//31 2//31 66//31 65//31
f 2//31 64//31 96//31 66//31
f 22//31 20//31 74//31 75//31
f 40//31 38//31 83//31 84//31
f 58//31 56//31 92//31 93//31
f 14//31 12//31 70//31 71//31
f 97//34 98//34 128//34 127//34 126//34 125//34 124//34 123//34 122//34 121//34 120//34 119//34 118//34 117//34 116//34 115//34 114//34 113//34 112//34 111//34 110//34 109//34 108//34 107//34 106//34 105//34 104//34 103//34 102//34 101//34 100//34 99//34
f 68//3 67//3 99//3 100//3
f 95//30 94//30 126//30 127//30
f 82//17 81//17 113//17 114//17
f 69//4 68//4 100//4 101//4
f 96//32 95//32 127//32 128//32
f 83//18 82//18 114//18 115//18
f 70//5 69//5 101//5 102//5
f 66//33 96//33 128//33 98//33
f 84//19 83//19 115//19 116//19
f 71//6 70//6 102//6 103//6
f 85//20 84//20 116//20 117//20
f 72//7 71//7 103//7 104//7
f 86//21 85//21 117//21 118//21
f 73//8 72//8 104//8 105//8
f 87//22 86//22 118//22 119//22
f 74//9 73//9 105//9 106//9
f 88//23 87//23 119//23 120//23
f 75//10 74//10 106//10 107//10
f 89//24 88//24 120//24 121//24
f 76//11 75//11 107//11 108//11
f 90//25 89//25 121//25 122//25
f 77//12 76//12 108//12 109//12
f 91//26 90//26 122//26 123//26
f 78//13 77//13 109//13 110//13
f 92//27 91//27 123//27 124//27
f 79//14 78//14 110//14 111//14
f 65//1 66//1 98//1 97//1
f 93//28 92//28 124//28 125//28
f 80//15 79//15 111//15 112//15
f 67//2 65//2 97//2 99//2
f 94//29 93//29 125//29 126//29
f 129//35 130//35 131//35 132//35 133//35 134//35 135//35 136//35 137//35 138//35 139//35 140//35 141//35 142//35 143//35 144//35 145//35 146//35 147//35 148//35 149//35 150//35 151//35 152//35 153//35 154//35 155//35 156//35 157//35 158//35 159//35 160//35
f 21//11 23//11 140//11 139//11
f 39//20 41//20 149//20 148//20
f 57//29 59//29 158//29 157//29
f 13//7 15//7 136//7 135//7
f 31//16 33//16 145//16 144//16
f 49//25 51//25 154//25 153//25
f 5//3 7//3 132//3 131//3
f 23//12 25//12 141//12 140//12
f 41//21 43//21 150//21 149//21
f 59//30 61//30 159//30 158//30
f 15//8 17//8 137//8 136//8
f 33//17 35//17 146//17 145//17
f 51//26 53//26 155//26 154//26
f 7//4 9//4 133//4 132//4
f 25//13 27//13 142//13 141//13
f 43//22 45//22 151//22 150//22
f 61//32 63//32 160//32 159//32
f 17//9 19//9 138//9 137//9
f 35//18 37//18 147//18 146//18
f 53//27 55//27 156//27 155//27
f 9//5 11//5 134//5 133//5
f 27//14 29//14 143//14 142//14
f 45//23 47//23 152//23 151//23
f 1//1 3//1 130//1 129//1
f 63//33 1//33 129//33 160//33
f 19//10 21//10 139//10 138//10
f 37//19 39//19 148//19 147//19
f 55//28 57//28 157//28 156//28
f 11//6 13//6 135//6 134//6
f 29//15 31//15 144//15 143//15
f 47//24 49//24 153//24 152//24
o Cylinder
v 0.349985 0.000003 -1.253773
v 0.349985 2.000003 -0.426404
v 0.545076 0.000003 -1.247486
v 0.395918 2.000003 -0.405527
v 0.732669 0.000003 -1.222788
v 0.440085 2.000003 -0.360232
v 0.842587 0.084680 -1.136275
v 0.480789 2.000003 -0.366679
v 0.994124 0.084680 -0.962126
v 0.516467 2.000003 -0.352349
v 1.101333 0.134121 -0.748271
v 0.545747 2.000003 -0.290672
v 1.193743 0.134121 -0.588580
v 0.567504 2.000003 -0.281063
v 1.224168 0.177159 -0.417325
v 0.580902 2.000003 -0.236896
v 1.243383 0.177159 -0.222234
v 0.585426 2.000003 -0.190964
v 1.196868 0.145398 -0.167990
v 0.580902 2.000003 -0.145032
v 1.139962 0.145398 0.019603
v 0.567504 2.000003 -0.100865
v 1.103776 0.191472 -0.022408
v 0.545747 2.000003 -0.060160
v 0.979413 0.191472 0.129128
v 0.516467 2.000003 -0.024482
v 0.914448 0.204598 0.129592
v 0.480789 2.000003 0.004798
v 0.741561 0.204598 0.222001
v 0.440085 2.000003 0.026555
v 0.662262 0.148013 0.043086
v 0.395918 2.000003 0.039953
v 0.442156 0.213485 -0.009247
v 0.349985 2.000003 0.044477
v 0.149511 0.168361 -0.017540
v 0.304053 2.000003 0.039953
v -0.147836 0.008384 0.014823
v 0.259886 2.000003 0.026555
v -0.315558 -0.022333 0.070007
v 0.219182 2.000003 0.004798
v -0.437996 0.043968 -0.042841
v 0.183504 2.000003 -0.024482
v -0.562359 0.043968 -0.030662
v 0.154224 2.000003 -0.060160
v -0.649340 0.018249 -0.252544
v 0.132467 2.000003 -0.100865
v -0.706245 0.018249 -0.141251
v 0.119069 2.000003 -0.145032
v -0.682881 0.033525 -0.308374
v 0.114545 2.000003 -0.190964
v -0.663666 0.033525 -0.503465
v 0.119069 2.000003 -0.236896
v -0.551687 0.015673 -0.661982
v 0.132467 2.000003 -0.281063
v -0.459277 0.015673 -0.834869
v 0.154224 2.000003 -0.321768
v -0.357121 0.000003 -1.024738
v 0.183504 2.000003 -0.357445
v -0.205584 0.000003 -1.125180
v 0.219182 2.000003 -0.362805
v -0.032697 0.000003 -1.208088
v 0.259887 2.000003 -0.408482
v 0.154897 0.000003 -1.276802
v 0.304054 2.000003 -0.370879
v 0.349985 -0.689435 -1.613230
v 0.612813 -0.567946 -1.859974
v 0.865540 -0.567946 -1.980283
v 1.035486 -0.483269 -1.577882
v 1.239637 -0.483269 -1.623488
v 1.390026 -0.433828 -1.383017
v 1.514521 -0.433828 -1.267185
v 1.564704 -0.390790 -1.030796
v 1.590591 -0.390790 -0.405126
v 1.537404 -0.422552 -0.614336
v 1.460740 -0.422552 -0.178718
v 1.392469 -0.376478 -0.209094
v 1.224926 -0.376478 -0.004942
v 1.107346 -0.363352 -0.202858
v 0.874432 -0.363352 -0.338650
v 0.729999 -0.419937 -0.102620
v 0.442156 -0.354464 -0.137480
v 0.081774 -0.399588 -0.266277
v -0.280707 -0.559566 -0.249676
v -0.508456 -0.590283 -0.063806
v -0.683509 -0.523982 -0.114715
v -0.851052 -0.523982 -0.100236
v -0.970118 -0.549700 -0.214217
v -1.046782 -0.549700 -0.373757
v -1.030089 -0.534424 -0.636174
v -1.004203 -0.534424 -0.913229
v -0.872465 -0.552277 -1.136880
v -0.747970 -0.552277 -1.471903
v -0.602633 -0.567946 -1.714387
v -0.398482 -0.567946 -1.319307
v -0.165567 -0.567946 -1.664920
v 0.087160 -0.689435 -1.935129
v 0.395918 2.000003 -0.421880
v 0.349985 2.000003 -0.426404
v 0.440085 2.000003 -0.408482
v 0.480789 2.000003 -0.386725
v 0.516467 2.000003 -0.357445
v 0.545747 2.000003 -0.321767
v 0.567504 2.000003 -0.281063
v 0.580902 2.000003 -0.236896
v 0.585426 2.000003 -0.190964
v 0.580902 2.000003 -0.145032
v 0.567504 2.000003 -0.100865
v 0.545747 2.000003 -0.060160
v 0.516467 2.000003 -0.024482
v 0.480789 2.000003 0.004798
v 0.440085 2.000003 0.026555
v 0.395918 2.000003 0.039953
v 0.349985 2.000003 0.044477
v 0.304053 2.000003 0.039953
v 0.259886 2.000003 0.026555
v 0.219182 2.000003 0.004798
v 0.183504 2.000003 -0.024482
v 0.154224 2.000003 -0.060160
v 0.132467 2.000003 -0.100865
v 0.119069 2.000003 -0.145032
v 0.114545 2.000003 -0.190964
v 0.119069 2.000003 -0.236896
v 0.132467 2.000003 -0.281063
v 0.154224 2.000003 -0.321768
v 0.183504 2.000003 -0.357445
v 0.219182 2.000003 -0.386725
v 0.259887 2.000003 -0.408482
v 0.304054 2.000003 -0.421880
v 0.389171 2.000003 -0.387965
v 0.349985 2.000003 -0.391825
v 0.426852 2.000003 -0.376535
v 0.461578 2.000003 -0.357973
v 0.492016 2.000003 -0.332994
v 0.516995 2.000003 -0.302556
v 0.535557 2.000003 -0.267830
v 0.546987 2.000003 -0.230150
v 0.550846 2.000003 -0.190964
v 0.546987 2.000003 -0.151778
v 0.535557 2.000003 -0.114097
v 0.516995 2.000003 -0.079371
v 0.492016 2.000003 -0.048933
v 0.461578 2.000003 -0.023954
v 0.426852 2.000003 -0.005392
v 0.389171 2.000003 0.006038
v 0.349985 2.000003 0.009897
v 0.310799 2.000003 0.006038
v 0.273119 2.000003 -0.005392
v 0.238393 2.000003 -0.023954
v 0.207955 2.000003 -0.048934
v 0.182975 2.000003 -0.079371
v 0.164414 2.000003 -0.114098
v 0.152984 2.000003 -0.151778
v 0.149124 2.000003 -0.190964
v 0.152984 2.000003 -0.230150
v 0.164414 2.000003 -0.267830
v 0.182976 2.000003 -0.302556
v 0.207955 2.000003 -0.332994
v 0.238393 2.000003 -0.357974
v 0.273120 2.000003 -0.376535
v 0.310800 2.000003 -0.387965
v 0.395918 2.142887 -0.421880
v 0.349985 2.142887 -0.426404
v 0.440085 2.142887 -0.408482
v 0.480789 2.142887 -0.386725
v 0.516467 2.142887 -0.357445
v 0.545747 2.142887 -0.321767
v 0.567504 2.142887 -0.281063
v 0.580902 2.142887 -0.236896
v 0.585426 2.142887 -0.190964
v 0.580902 2.142887 -0.145032
v 0.567504 2.142887 -0.100865
v 0.545747 2.142887 -0.060160
v 0.516467 2.142887 -0.024482
v 0.480789 2.142887 0.004798
v 0.440085 2.142887 0.026555
v 0.395918 2.142887 0.039953
v 0.349985 2.142887 0.044477
v 0.304053 2.142887 0.039953
v 0.259886 2.142887 0.026555
v 0.219182 2.142887 0.004798
v 0.183504 2.142887 -0.024482
v 0.154224 2.142887 -0.060160
v 0.132467 2.142887 -0.100865
v 0.119069 2.142887 -0.145032
v 0.114545 2.142887 -0.190964
v 0.119069 2.142887 -0.236896
v 0.132467 2.142887 -0.281063
v 0.154224 2.142887 -0.321768
v 0.183504 2.142887 -0.357445
v 0.219182 2.142887 -0.386725
v 0.259887 2.142887 -0.408482
v 0.304054 2.142887 -0.421880
v 0.219182 2.000003 -0.386725
v 0.259887 2.000003 -0.408482
v 0.842587 0.084680 -1.043365
v 0.994124 0.084680 -0.854266
vn 0.1033 0.3864 -0.9165
vn 0.2646 0.4026 -0.8763
vn 0.2394 0.4074 -0.8813
vn 0.6566 0.3788 -0.6522
vn 0.8116 0.3532 -0.4654
vn 0.7757 0.3529 -0.5231
vn 0.9041 0.3446 -0.2528
vn 0.9361 0.3395 -0.0922
vn 0.8182 0.2760 0.5044
vn 0.9129 0.2998 0.2769
vn 0.0156 0.0480 0.9987
vn 0.7496 0.2441 0.6152
vn 0.2979 0.1470 0.9432
vn 0.4643 0.1725 0.8687
vn -0.7837 -0.0885 0.6148
vn -0.1844 -0.0318 0.9823
vn -0.0338 -0.0301 0.9990
vn 0.0686 -0.0281 0.9973
vn 0.1619 -0.0249 0.9865
vn -0.6122 0.1870 0.7683
vn -0.1510 0.0544 0.9870
vn -0.8843 0.3261 0.3342
vn 0.6602 -0.2935 0.6914
vn -0.9230 0.3809 -0.0543
vn -0.9210 0.3789 -0.0907
vn -0.7746 0.3715 -0.5119
vn -0.8204 0.3670 -0.4385
vn -0.7902 0.3730 -0.4864
vn -0.4520 0.3950 -0.7998
vn -0.4743 0.3927 -0.7879
vn 0.0000 0.0000 1.0000
vn -0.1219 0.4007 -0.9081
vn -0.1226 0.3984 -0.9090
vn 0.4999 0.7430 -0.4451
vn 0.0454 -0.9954 0.0844
vn -0.0825 -0.6305 0.7718
vn -0.3395 0.0370 0.9399
vn -0.5019 0.5119 -0.6972
vn 0.5250 0.4886 -0.6969
vn 0.8916 0.4106 0.1911
vn 0.5201 -0.4116 0.7484
vn -0.5786 0.7199 -0.3834
vn 0.5190 0.7508 -0.4086
vn 0.4196 -0.4247 0.8022
vn -0.8456 0.5322 -0.0410
vn -0.1398 0.7521 -0.6441
vn -0.7463 -0.5348 0.3963
vn -0.4740 0.0236 0.8802
vn 0.6016 0.3328 -0.7262
vn 0.6584 0.6994 -0.2779
vn -0.2242 -0.2411 0.9442
vn -0.8291 0.5534 -0.0792
vn 0.4942 0.6942 -0.5233
vn 0.7602 0.1813 0.6239
vn 0.0897 -0.1645 0.9823
vn -0.6220 0.5159 -0.5890
vn 0.8399 0.5409 -0.0462
vn -0.1555 -0.3028 0.9403
vn -0.5861 0.6820 -0.4375
vn 0.2351 0.7223 -0.6504
vn -0.6723 -0.4881 0.5566
vn -0.8014 0.4182 0.4276
vn -0.3400 0.6538 -0.6760
vn -0.5077 -0.6318 0.5857
vn 0.2749 -0.4358 0.8570
vn -0.6911 0.6597 -0.2951
vn 0.0000 1.0000 0.0000
vn 0.0000 -1.0000 0.0000
vn -0.2822 -0.2342 0.9303
vn 0.7515 -0.2342 -0.6168
vn -0.0953 -0.2342 -0.9675
vn -0.4583 -0.2342 0.8574
vn 0.8574 -0.2342 -0.4583
vn -0.6168 -0.2342 0.7515
vn 0.9303 -0.2342 -0.2822
vn -0.7515 -0.2342 0.6168
vn 0.9675 -0.2342 -0.0953
vn -0.8574 -0.2342 0.4583
vn 0.9675 -0.2342 0.0953
vn -0.9303 -0.2342 0.2822
vn 0.9303 -0.2342 0.2822
vn -0.9675 -0.2342 0.0953
vn 0.8574 -0.2342 0.4583
vn -0.9675 -0.2342 -0.0953
vn 0.7515 -0.2342 0.6168
vn -0.9303 -0.2342 -0.2822
vn 0.6168 -0.2342 0.7515
vn -0.8574 -0.2342 -0.4583
vn 0.4583 -0.2342 0.8574
vn 0.0953 -0.2342 -0.9675
vn -0.7515 -0.2342 -0.6168
vn 0.2822 -0.2342 0.9303
vn 0.2822 -0.2342 -0.9303
vn -0.6168 -0.2342 -0.7515
vn 0.0953 -0.2342 0.9675
vn 0.4583 -0.2342 -0.8574
vn -0.4583 -0.2342 -0.8574
vn -0.0953 -0.2342 0.9675
vn 0.6168 -0.2342 -0.7515
vn -0.2822 -0.2342 -0.9303
usemtl None
s off
f 161//36 162//36 164//36 163//36
f 163//37 164//37 166//37 165//37
f 165//38 166//38 168//38 167//38
f 167//39 168//39 170//39 169//39
f 169//40 170//40 172//40 171//40
f 171//41 172//41 174//41 173//41
f 173//42 174//42 176//42 175//42
f 175//43 176//43 178//43 177//43
f 177//44 178//44 180//44 179//44
f 179//45 180//45 182//45 181//45
f 181//46 182//46 184//46 183//46
f 183//47 184//47 186//47 185//47
f 185//48 186//48 188//48 187//48
f 187//49 188//49 190//49 189//49
f 189//50 190//50 192//50 191//50
f 191//51 192//51 194//51 193//51
f 193//52 194//52 196//52 195//52
f 195//53 196//53 198//53 197//53
f 197//54 198//54 200//54 199//54
f 199//55 200//55 202//55 201//55
f 201//56 202//56 204//56 203//56
f 203//57 204//57 206//57 205//57
f 205//58 206//58 208//58 207//58
f 207//59 208//59 210//59 209//59
f 209//60 210//60 212//60 211//60
f 211//61 212//61 214//61 213//61
f 213//62 214//62 216//62 215//62
f 215//63 216//63 218//63 217//63
f 217//64 218//64 220//64 219//64
f 219//65 220//65 222//65 221//65
f 216//66 214//66 283//66 284//66
f 221//67 222//67 224//67 223//67
f 223//68 224//68 162//68 161//68
f 169//69 171//69 230//69 229//69
f 225//70 226//70 227//70 228//70 229//70 230//70 231//70 232//70 233//70 234//70 235//70 236//70 237//70 238//70 239//70 240//70 241//70 242//70 243//70 244//70 245//70 246//70 247//70 248//70 249//70 250//70 251//70 252//70 253//70 254//70 255//70 256//70
f 187//71 189//71 239//71 238//71
f 205//72 207//72 248//72 247//72
f 161//73 163//73 226//73 225//73
f 223//74 161//74 225//74 256//74
f 179//75 181//75 235//75 234//75
f 197//76 199//76 244//76 243//76
f 215//77 217//77 253//77 252//77
f 171//78 173//78 231//78 230//78
f 189//79 191//79 240//79 239//79
f 207//80 209//80 249//80 248//80
f 163//81 165//81 227//81 226//81
f 181//82 183//82 236//82 235//82
f 199//83 201//83 245//83 244//83
f 217//84 219//84 254//84 253//84
f 173//85 175//85 232//85 231//85
f 191//86 193//86 241//86 240//86
f 209//87 211//87 250//87 249//87
f 165//88 167//88 228//88 227//88
f 183//89 185//89 237//89 236//89
f 201//90 203//90 246//90 245//90
f 219//91 221//91 255//91 254//91
f 175//92 177//92 233//92 232//92
f 193//93 195//93 242//93 241//93
f 211//94 213//94 251//94 250//94
f 167//95 169//95 229//95 228//95
f 185//96 187//96 238//96 237//96
f 203//97 205//97 247//97 246//97
f 221//98 223//98 256//98 255//98
f 177//99 179//99 234//99 233//99
f 195//100 197//100 243//100 242//100
f 213//101 215//101 252//101 251//101
f 272//102 271//102 303//102 304//102
f 172//103 170//103 261//103 262//103
f 190//66 188//66 270//66 271//66
f 208//66 206//66 279//66 280//66
f 164//103 162//103 258//103 257//103
f 162//103 224//103 288//103 258//103
f 182//66 180//66 266//66 267//66
f 200//66 198//66 275//66 276//66
f 218//66 216//66 284//66 285//66
f 174//103 172//103 262//103 263//103
f 192//66 190//66 271//66 272//66
f 210//66 208//66 280//66 281//66
f 166//103 164//103 257//103 259//103
f 184//66 182//66 267//66 268//66
f 202//66 200//66 276//66 277//66
f 220//103 218//103 285//103 286//103
f 176//66 174//66 263//66 264//66
f 194//66 192//66 272//66 273//66
f 212//66 210//66 281//66 282//66
f 168//103 166//103 259//103 260//103
f 186//66 184//66 268//66 269//66
f 204//66 202//66 277//66 278//66
f 222//103 220//103 286//103 287//103
f 178//66 176//66 264//66 265//66
f 196//66 194//66 273//66 274//66
f 214//66 212//66 282//66 283//66
f 170//103 168//103 260//103 261//103
f 188//66 186//66 269//66 270//66
f 206//66 204//66 278//66 279//66
f 224//103 222//103 287//103 288//103
f 180//66 178//66 265//66 266//66
f 198//66 196//66 274//66 275//66
f 307//104 306//104 338//104 339//104
f 259//102 257//102 289//102 291//102
f 286//102 285//102 317//102 318//102
f 273//102 272//102 304//102 305//102
f 260//102 259//102 291//102 292//102
f 287//102 286//102 318//102 319//102
f 274//102 273//102 305//102 306//102
f 261//102 260//102 292//102 293//102
f 288//102 287//102 319//102 320//102
f 275//102 274//102 306//102 307//102
f 262//102 261//102 293//102 294//102
f 258//102 288//102 320//102 290//102
f 276//102 275//102 307//102 308//102
f 263//102 262//102 294//102 295//102
f 277//102 276//102 308//102 309//102
f 264//102 263//102 295//102 296//102
f 278//102 277//102 309//102 310//102
f 265//102 264//102 296//102 297//102
f 279//102 278//102 310//102 311//102
f 266//102 265//102 297//102 298//102
f 280//102 279//102 311//102 312//102
f 267//102 266//102 298//102 299//102
f 281//102 280//102 312//102 313//102
f 268//102 267//102 299//102 300//102
f 282//102 281//102 313//102 314//102
f 269//102 268//102 300//102 301//102
f 283//102 282//102 314//102 315//102
f 270//102 269//102 301//102 302//102
f 284//102 283//102 315//102 316//102
f 271//102 270//102 302//102 303//102
f 257//102 258//102 290//102 289//102
f 285//102 284//102 316//102 317//102
f 321//102 322//102 352//102 351//102 350//102 349//102 348//102 347//102 346//102 345//102 344//102 343//102 342//102 341//102 340//102 339//102 338//102 337//102 336//102 335//102 334//102 333//102 332//102 331//102 330//102 329//102 328//102 327//102 326//102 325//102 324//102 323//102
f 294//105 293//105 325//105 326//105
f 290//106 320//106 352//106 322//106
f 308//107 307//107 339//107 340//107
f 295//108 294//108 326//108 327//108
f 309//109 308//109 340//109 341//109
f 296//110 295//110 327//110 328//110
f 310//111 309//111 341//111 342//111
f 297//112 296//112 328//112 329//112
f 311//113 310//113 342//113 343//113
f 298//114 297//114 329//114 330//114
f 312//115 311//115 343//115 344//115
f 299//116 298//116 330//116 331//116
f 313//117 312//117 344//117 345//117
f 300//118 299//118 331//118 332//118
f 314//119 313//119 345//119 346//119
f 301//120 300//120 332//120 333//120
f 315//121 314//121 346//121 347//121
f 302//122 301//122 333//122 334//122
f 316//123 315//123 347//123 348//123
f 303//124 302//124 334//124 335//124
f 289//125 290//125 322//125 321//125
f 317//126 316//126 348//126 349//126
f 304//127 303//127 335//127 336//127
f 291//128 289//128 321//128 323//128
f 318//129 317//129 349//129 350//129
f 305//130 304//130 336//130 337//130
f 292//131 291//131 323//131 324//131
f 319//132 318//132 350//132 351//132
f 306//133 305//133 337//133 338//133
f 293//134 292//134 324//134 325//134
f 320//135 319//135 351//135 352//135
f 286//66 287//66 354//66 353//66
f 169//102 167//102 355//102 356//102
